# xmcd
#
# Track frame offsets:
#	150
#	29227
#	51343
#	67727
#	88237
#	97783
#	115116
#	136759
#	162074
#	188866
#	210644
#
# Disc length: 3155 seconds
#
# Revision: 1
# Processed by: cddbd v1.5.1PL0 Copyright (c) Steve Scherf et al.
# Submitted via: CDex 1.50Beta5
#
DISCID=900c510b
DTITLE=Lunar Machines - Claranieve
DYEAR=1900
DGENRE=
TTITLE0=days(winter blossom)
TTITLE1=恋のしょほうせん(ultra dance edit.)
TTITLE2=Trouble Maker
TTITLE3=禅衣(2nd breeze mix)
TTITLE4=水たまり 〜One day Mix〜
TTITLE5=思い出の雨(Rain of recollections)
TTITLE6=Last Regrets "collapse mix"
TTITLE7=風を待った日(Hyper Trance!)
TTITLE8=snowy kiss
TTITLE9=おまけtrack1
TTITLE10=おまけtrack2
EXTD=
EXTT0=
EXTT1=
EXTT2=
EXTT3=
EXTT4=
EXTT5=
EXTT6=
EXTT7=
EXTT8=
EXTT9=
EXTT10=
PLAYORDER=
